<svg width="140" height="155" viewBox="0 0 140 155" fill="none" xmlns="http://www.w3.org/2000/svg">
<path d="M30 0L110 3.47826V104.348L106.522 107.826H99.5652L30 93.913V0Z" fill="#3C8EEF"/>
<path d="M36.9565 3.47826L106.522 6.95652V107.826L99.5652 114.783L30 93.913L36.9565 3.47826Z" fill="#C3DCFA"/>
<path d="M30 3.47826L99.5652 17.3913V114.783L30 100.87V3.47826Z" fill="#3C8EEF"/>
<path d="M91.203 60.2528C90.8863 62.6331 88.7367 64.1082 86.4018 63.5477C84.0669 62.9871 82.4309 60.6031 82.7476 58.2229C83.0644 55.8426 85.214 54.3675 87.5489 54.928C89.8837 55.4886 91.5198 57.8726 91.203 60.2528Z" fill="#C3DCFA"/>
<path d="M15 142.431C15 145.719 12.36 148.023 8.04 148.023C3.696 148.023 0.984 145.695 0.72 142.047H4.416C4.512 143.943 5.736 145.167 7.968 145.167C9.816 145.167 11.136 144.351 11.136 142.959C11.136 141.879 10.296 141.231 8.832 140.943L6 140.391C3.384 139.887 1.368 138.471 1.368 135.615C1.368 132.543 4.08 130.335 7.8 130.335C11.664 130.335 14.496 132.591 14.736 136.191H11.04C10.92 134.391 9.672 133.167 7.848 133.167C6.072 133.167 5.064 134.175 5.064 135.375C5.064 136.551 6.144 137.055 7.392 137.295L10.344 137.895C13.368 138.495 15 139.887 15 142.431ZM25.4638 144.543V147.447C24.6478 147.855 23.8798 148.023 22.8958 148.023C20.2558 148.023 18.5998 146.511 18.5998 143.631V137.823H16.0078V134.967H18.5998V131.175H21.9118V134.967H25.5838V137.823H21.9118V142.863C21.9118 144.351 22.5838 144.951 23.7838 144.951C24.4078 144.951 24.9838 144.807 25.4638 144.543ZM35.4208 142.383V134.967H38.7328V147.783H35.6848V146.103C34.9888 147.231 33.5728 148.023 31.9408 148.023C29.3728 148.023 27.5008 146.463 27.5008 143.127V134.967H30.8368V142.479C30.8368 144.279 31.7248 145.071 33.0688 145.071C34.2688 145.071 35.4208 144.111 35.4208 142.383ZM40.8902 141.375C40.8902 137.583 43.1222 134.727 46.5782 134.727C48.1142 134.727 49.4102 135.399 50.3702 136.623V130.551H53.6822V147.783H50.6342V145.935C49.6262 147.279 48.2342 148.023 46.5782 148.023C43.1222 148.023 40.8902 145.119 40.8902 141.375ZM44.3222 141.375C44.3222 143.775 45.6902 145.047 47.3222 145.047C48.9782 145.047 50.3462 143.751 50.3462 141.327C50.3462 138.903 48.9542 137.679 47.3222 137.679C45.6902 137.679 44.3222 138.927 44.3222 141.375ZM68.2039 134.967L61.9639 152.415H58.3399L60.1639 147.639L55.1239 134.967H58.7239L61.9399 143.751L64.8679 134.967H68.2039ZM83.1797 142.431C83.1797 145.719 80.5397 148.023 76.2197 148.023C71.8757 148.023 69.1637 145.695 68.8997 142.047H72.5957C72.6917 143.943 73.9157 145.167 76.1477 145.167C77.9957 145.167 79.3157 144.351 79.3157 142.959C79.3157 141.879 78.4757 141.231 77.0117 140.943L74.1797 140.391C71.5637 139.887 69.5477 138.471 69.5477 135.615C69.5477 132.543 72.2597 130.335 75.9797 130.335C79.8437 130.335 82.6757 132.591 82.9157 136.191H79.2197C79.0997 134.391 77.8517 133.167 76.0277 133.167C74.2517 133.167 73.2437 134.175 73.2437 135.375C73.2437 136.551 74.3237 137.055 75.5717 137.295L78.5237 137.895C81.5477 138.495 83.1797 139.887 83.1797 142.431ZM98.3738 141.375C98.3738 145.167 96.1418 148.023 92.6858 148.023C91.1738 148.023 89.8778 147.375 88.9178 146.127V152.415H85.5818V134.967H88.6538V136.839C89.6378 135.471 91.0538 134.727 92.6858 134.727C96.1418 134.727 98.3738 137.607 98.3738 141.375ZM94.9418 141.375C94.9418 138.975 93.5738 137.679 91.9418 137.679C90.3098 137.679 88.9418 138.951 88.9418 141.375C88.9418 143.799 90.3098 145.047 91.9418 145.047C93.5738 145.047 94.9418 143.823 94.9418 141.375ZM108.143 147.783V146.199C107.303 147.399 106.031 148.023 104.279 148.023C101.615 148.023 99.8394 146.463 99.8394 144.063C99.8394 141.567 101.855 140.223 105.599 140.223C106.319 140.223 106.943 140.271 107.735 140.367V139.599C107.735 138.159 106.919 137.319 105.527 137.319C104.087 137.319 103.223 138.159 103.103 139.599H100.103C100.295 136.647 102.431 134.727 105.527 134.727C108.887 134.727 110.855 136.575 110.855 139.719V147.783H108.143ZM102.983 143.967C102.983 145.047 103.751 145.719 104.999 145.719C106.703 145.719 107.735 144.783 107.735 143.295V142.383C106.943 142.263 106.391 142.215 105.815 142.215C103.919 142.215 102.983 142.815 102.983 143.967ZM119.13 148.023C115.434 148.023 112.89 145.287 112.89 141.375C112.89 137.535 115.53 134.727 119.13 134.727C122.466 134.727 124.938 136.983 125.346 140.439H121.842C121.674 138.735 120.642 137.679 119.13 137.679C117.402 137.679 116.298 139.095 116.298 141.375C116.298 143.679 117.378 145.071 119.13 145.071C120.666 145.071 121.65 144.063 121.842 142.311H125.346C124.962 145.839 122.562 148.023 119.13 148.023ZM133.009 147.999C129.169 147.999 126.601 145.335 126.601 141.327C126.601 137.511 129.265 134.727 132.961 134.727C137.017 134.727 139.705 138.015 139.105 142.191H130.009C130.225 144.279 131.233 145.431 132.937 145.431C134.401 145.431 135.385 144.711 135.769 143.439H139.081C138.361 146.343 136.129 147.999 133.009 147.999ZM132.889 137.175C131.329 137.175 130.345 138.183 130.057 140.079H135.577C135.481 138.303 134.473 137.175 132.889 137.175Z" fill="black"/>
</svg>
